<?xml version="1.0" encoding="UTF-8" standalone="no"?>
<svg
   height="16"
   viewBox="0 0 16 16"
   width="16"
   version="1.1"
   id="svg8"
   xmlns="http://www.w3.org/2000/svg"
   xmlns:svg="http://www.w3.org/2000/svg"
   xmlns:rdf="http://www.w3.org/1999/02/22-rdf-syntax-ns#"
   xmlns:cc="http://creativecommons.org/ns#"
   xmlns:dc="http://purl.org/dc/elements/1.1/">
  <defs
     id="defs8" />
  <path
     d="m 3.703125,10.625 c 0.15625,0.777344 0.609375,1.886719 1.144531,2.398438 0.691406,0.65625 1.652344,1.113281 2.65625,1.726562 1.007813,0.617188 1.863282,1.09375 1.863282,1.09375 l 0.324218,0.183594 0.328125,-0.183594 c 0,0 0.855469,-0.476562 1.863281,-1.09375 1.003907,-0.613281 2.136719,-1.339844 2.828126,-1.996094 C 15.714844,11.800781 15.996094,10.125 16,8.367188 V 0 c -1.804688,2.324219 -3.429688,5.792969 -6.308594,5.792969 -1.011718,0 -1.683594,-0.00391 -2.398437,-0.933594 -0.039063,0.613281 -0.214844,0.957031 -0.558594,1.441406 0.898437,0.769531 1.785156,1.0625 2.957031,1.0625 1.480469,0 3.113282,-0.742187 4.527344,-2.386719 0.08594,1.203126 0.199219,2.464844 0.195312,3.480469 -0.0039,1.617188 -0.285156,2.773438 -0.648437,3.117188 -0.46875,0.449219 -1.609375,1.214843 -2.585937,1.8125 C 10.375,13.878906 9.917969,14.128906 9.691406,14.257812 9.464844,14.128906 9.007812,13.878906 8.207031,13.386719 7.226562,12.789062 6.089844,12.023438 5.621094,11.574219 5.367188,11.335938 4.933594,10.644531 4.644531,9.90625 c -0.316406,0.457031 -0.75,0.660156 -0.941406,0.71875 z m 0,0"
     fill="#241f31"
     id="path1"
     style="fill:#241f31;fill-rule:evenodd" />
  <path
     d="m 9.027344,11.640625 c 0,0 -0.964844,-2.429687 -2.121094,-2.429687 -0.832031,0 -1.863281,-1.101563 -1.863281,-1.101563 0.117187,0.523437 0.058593,0.976563 -0.058594,1.273437 0,0 0.601563,1.492188 1.554687,1.492188 1.0625,0 2.488282,0.765625 2.488282,0.765625 z m 1.328125,0 c 0,0 0.96875,-2.429687 2.125,-2.429687 1.6875,0 2.121093,-1.949219 2.121093,-1.949219 0,0 0.191407,3.613281 -1.753906,3.613281 -1.066406,0 -2.492187,0.765625 -2.492187,0.765625 z m 0,0"
     fill="#241f31"
     id="path2"
     style="fill:#241f31;fill-rule:evenodd" />
  <path
     d="M 2.273438,10.6875 C 2.15625,12.511719 1.921875,14.292969 1.277344,16 1.875,16 1.832031,15.757812 2.164062,15.757812 2.390625,15.757812 2.554688,16 2.78125,16 2.988281,16 3.152344,15.78125 3.359375,15.78125 3.664062,15.78125 3.605469,16 4.3125,16 3.703125,14.117188 3.5,12.410156 3.316406,10.703125 2.9375,10.792969 2.589844,10.789062 2.273438,10.6875 Z m 0,0"
     id="path5"
     style="fill:#241f31;fill-rule:evenodd" />
  <path
     d="m 4.320312,8.597656 c 0,0.792969 -0.640624,1.4375 -1.4375,1.4375 -0.792968,0 -1.4375,-0.644531 -1.4375,-1.4375 0,-0.792968 0.644532,-1.4375 1.4375,-1.4375 0.796876,0 1.4375,0.644532 1.4375,1.4375 z m 0,0"
     id="path6"
     style="fill:#241f31;fill-rule:evenodd" />
  <path
     d="m 3.1445313,0 v 2.0820313 c -0.069698,0.064701 -0.1351288,0.1334022 -0.1953125,0.2070312 -0.277344,0.34375 -0.4218743,0.792969 -0.4726563,1.5 C 2.3867195,3.6132815 2.2695313,3.4648445 2.1289063,3.3515625 1.8710943,3.1484385 1.6406247,3.0742188 1.4335937,3.0742188 1.1601557,3.0742188 0.92187525,3.203125 0.69140625,3.359375 0.28125025,3.628906 0.0117188,4.1875002 0,5.1445312 c -0.00390625,0.375 0.121094,0.8125 0.296875,1.171875 0.183594,0.386719 0.42578075,0.664063 0.7773437,1.015625 0.136719,-0.324219 0.7343748,-0.867187 1.5117188,-0.96875 0.59375,-0.109375 1.2500002,0.078125 1.6914062,0.40625 1.046875,-0.5 1.8320308,-1.40625 1.9960938,-2.453125 0.03125,-0.289062 0.1757813,-2.148437 -1.3398438,-2.703125 C 4.7758586,1.5531918 4.6080035,1.5295393 4.4355469,1.53125 Z M 4.3710937,3.4160156 C 4.5865479,3.422844 4.808105,3.53125 4.8984375,3.765625 5.2968745,4.816406 3.980469,5.964844 3.5,5.828125 3.339844,5.78125 3.2226563,4.0312505 4.0195312,3.5078125 4.1147464,3.4448245 4.2418213,3.4119186 4.3710937,3.4160156 Z m -3.078125,1.0722656 h 0.015625 0.011719 c 0.128907,0 0.242188,0.109375 0.28125,0.28125 C 1.7031255,5.2656252 1.726562,5.933594 1.703125,6.015625 1.527344,6.574219 1.2539057,6.199219 1.0585937,5.953125 0.77734375,5.4375 0.83984425,4.851562 1.0976562,4.59375 1.1601562,4.53125 1.2304687,4.496094 1.2929687,4.4882812 Z"
     style="fill:#241f31;fill-rule:evenodd"
     id="path8" />
  <metadata
     id="metadata8">
    <rdf:RDF>
      <cc:Work
         rdf:about="">
        <dc:date>2026</dc:date>
        <dc:creator>
          <cc:Agent>
            <dc:title>Viktoria 'gingercat' Zubacheva | gingercat@alt-gnome.ru</dc:title>
          </cc:Agent>
        </dc:creator>
        <dc:rights>
          <cc:Agent>
            <dc:title>CC BY-NC-SA 4.0 http://creativecommons.org/licenses/by-nc-sa/4.0/</dc:title>
          </cc:Agent>
        </dc:rights>
        <cc:license
           rdf:resource="http://creativecommons.org/licenses/by-nc-sa/4.0/" />
      </cc:Work>
      <cc:License
         rdf:about="http://creativecommons.org/licenses/by-nc-sa/4.0/">
        <cc:permits
           rdf:resource="http://creativecommons.org/ns#Reproduction" />
        <cc:permits
           rdf:resource="http://creativecommons.org/ns#Distribution" />
        <cc:requires
           rdf:resource="http://creativecommons.org/ns#Notice" />
        <cc:requires
           rdf:resource="http://creativecommons.org/ns#Attribution" />
        <cc:prohibits
           rdf:resource="http://creativecommons.org/ns#CommercialUse" />
        <cc:permits
           rdf:resource="http://creativecommons.org/ns#DerivativeWorks" />
        <cc:requires
           rdf:resource="http://creativecommons.org/ns#ShareAlike" />
      </cc:License>
    </rdf:RDF>
  </metadata>
</svg>
