<?xml version="1.0" encoding="UTF-8" standalone="no"?>
<svg
   height="128"
   viewBox="0 0 128 128"
   width="128"
   version="1.1"
   id="svg55"
   xmlns:xlink="http://www.w3.org/1999/xlink"
   xmlns="http://www.w3.org/2000/svg"
   xmlns:svg="http://www.w3.org/2000/svg"
   xmlns:rdf="http://www.w3.org/1999/02/22-rdf-syntax-ns#"
   xmlns:cc="http://creativecommons.org/ns#"
   xmlns:dc="http://purl.org/dc/elements/1.1/">
  <defs
     id="defs55">
    <linearGradient
       id="linearGradient28">
      <stop
         style="stop-color:#a51d2d;stop-opacity:1"
         offset="0"
         id="stop28" />
      <stop
         style="stop-color:#c01c28;stop-opacity:1"
         offset="1"
         id="stop29" />
    </linearGradient>
    <linearGradient
       id="linearGradient68">
      <stop
         style="stop-color:#a51d2d;stop-opacity:1"
         offset="0"
         id="stop68" />
      <stop
         style="stop-color:#e01b24;stop-opacity:1"
         offset="1"
         id="stop69" />
    </linearGradient>
    <linearGradient
       id="linearGradient64">
      <stop
         style="stop-color:#241f31;stop-opacity:1"
         offset="0"
         id="stop64" />
      <stop
         style="stop-color:#c01c28;stop-opacity:1"
         offset="1"
         id="stop65" />
    </linearGradient>
    <linearGradient
       id="linearGradient60">
      <stop
         style="stop-color:#241f31;stop-opacity:1"
         offset="0"
         id="stop60" />
      <stop
         style="stop-color:#5e5c64;stop-opacity:1"
         offset="1"
         id="stop61" />
    </linearGradient>
    <linearGradient
       xlink:href="#linearGradient60"
       id="linearGradient59"
       x1="44.802422"
       y1="76.641579"
       x2="44.597656"
       y2="82.885635"
       gradientUnits="userSpaceOnUse" />
    <linearGradient
       xlink:href="#linearGradient64"
       id="linearGradient63"
       x1="83.402344"
       y1="75.632812"
       x2="83.402344"
       y2="83.824318"
       gradientUnits="userSpaceOnUse" />
    <linearGradient
       xlink:href="#linearGradient68"
       id="linearGradient67"
       x1="106.34916"
       y1="79.91777"
       x2="107.0625"
       y2="112.85114"
       gradientUnits="userSpaceOnUse" />
    <linearGradient
       xlink:href="#linearGradient28"
       id="linearGradient27"
       x1="22.390625"
       y1="102.46096"
       x2="22.390625"
       y2="116.75782"
       gradientUnits="userSpaceOnUse" />
  </defs>
  <linearGradient
     id="a"
     gradientTransform="matrix(0.791481,-0.0188012,0.0525413,1.798947,22.826363,-52.774666)"
     gradientUnits="userSpaceOnUse"
     spreadMethod="reflect"
     x1="-15.216496"
     x2="45.014832"
     y1="94.46463"
     y2="95.094124">
    <stop
       offset="0"
       stop-color="#ed333b"
       id="stop1" />
    <stop
       offset="0.03346148"
       stop-color="#a51d2d"
       id="stop2"
       style="stop-color:#a51d2d;stop-opacity:1" />
    <stop
       offset="0.19794948"
       stop-color="#a51d2d"
       id="stop3" />
    <stop
       offset="0.24342747"
       stop-color="#e01b24"
       id="stop4" />
    <stop
       offset="1"
       stop-color="#a51d2d"
       stop-opacity="0"
       id="stop5" />
  </linearGradient>
  <linearGradient
     id="b"
     gradientTransform="rotate(-8.4341712,-966.78721,191.173)"
     gradientUnits="userSpaceOnUse"
     spreadMethod="reflect"
     x1="10.553102"
     x2="27.458021"
     y1="204.83101"
     y2="207.3376">
    <stop
       offset="0"
       stop-color="#5e5c64"
       id="stop6" />
    <stop
       offset="0.447784"
       stop-color="#a51d2d"
       id="stop7" />
    <stop
       offset="0.800685"
       stop-color="#a51d2d"
       id="stop8" />
    <stop
       offset="1"
       stop-color="#5e5c64"
       id="stop9" />
  </linearGradient>
  <linearGradient
     id="c"
     gradientUnits="userSpaceOnUse"
     spreadMethod="reflect"
     x1="17.638067"
     x2="63.763603"
     y1="101.44942"
     y2="101.44942">
    <stop
       offset="0"
       stop-color="#c0bfbc"
       id="stop10" />
    <stop
       offset="0.08504994"
       stop-color="#c0bfbc"
       id="stop11" />
    <stop
       offset="0.12934315"
       stop-color="#f6f5f4"
       id="stop12" />
    <stop
       offset="0.277111"
       stop-color="#c0bfbc"
       id="stop13" />
    <stop
       offset="0.66754705"
       stop-color="#9a9996"
       id="stop14" />
    <stop
       offset="0.76435941"
       stop-color="#deddda"
       id="stop15" />
    <stop
       offset="0.84684408"
       stop-color="#c0bfbc"
       id="stop16" />
    <stop
       offset="0.975885"
       stop-color="#9a9996"
       id="stop17" />
  </linearGradient>
  <linearGradient
     id="d"
     gradientUnits="userSpaceOnUse"
     x1="66.246025"
     x2="66.246025"
     y1="-14.962579"
     y2="25.357201">
    <stop
       offset="0"
       stop-color="#f66151"
       id="stop18" />
    <stop
       offset="1"
       stop-color="#ffffff"
       id="stop19" />
  </linearGradient>
  <linearGradient
     id="e"
     gradientUnits="userSpaceOnUse"
     x1="45.834503"
     x2="45.834503"
     y1="77.678734"
     y2="85.900581">
    <stop
       offset="0"
       stop-color="#3d3846"
       id="stop20" />
    <stop
       offset="1"
       stop-color="#77767b"
       id="stop21" />
  </linearGradient>
  <linearGradient
     id="f"
     gradientTransform="matrix(1.267637,-0.00752388,0.00752388,1.267637,29.360135,-15.543141)"
     gradientUnits="userSpaceOnUse"
     x1="5.3255529"
     x2="5.2438531"
     y1="53.508972"
     y2="67.273979">
    <stop
       offset="0"
       stop-color="#f9f06b"
       id="stop22" />
    <stop
       offset="1"
       stop-color="#ff7800"
       id="stop23" />
  </linearGradient>
  <linearGradient
     id="g"
     gradientTransform="matrix(1.267637,-0.00752388,0.00752388,1.267637,29.360135,-15.543141)"
     gradientUnits="userSpaceOnUse"
     spreadMethod="reflect"
     x1="-7.740077"
     x2="-6.0269432"
     y1="62.610428"
     y2="55.559109">
    <stop
       offset="0"
       stop-color="#f8e45c"
       id="stop24" />
    <stop
       offset="1"
       stop-color="#ffffff"
       id="stop25" />
  </linearGradient>
  <path
     d="M 20.925781,61.273438 C 20.308594,59.78125 19.453125,57.640625 18.050781,54.976562 16.679688,52.371094 15.097656,49.871094 13.46875,47.835938 12.753906,46.945312 12.0625,46.179688 11.410156,45.5625 10.789062,44.972656 10.148438,44.464844 9.519531,44.054688 8.898438,43.644531 8.277344,43.324219 7.660156,43.101562 7.359375,42.992188 7.035156,42.894531 6.691406,42.828125 6.523438,42.792969 6.328125,42.761719 6.125,42.742188 c -0.199219,-0.01953 -0.449219,-0.02734 -0.71875,-0.01172 -1.375,0.08984 -2.480469,0.824219 -2.722656,1.800781 -0.726563,2.957031 -0.8125,5.953125 -0.585938,8.738281 0.191406,2.386719 0.613282,4.644531 1.074219,6.660157 0.109375,0.484374 0.226563,0.953124 0.34375,1.410156 0.683594,2.582031 1.550781,4.867187 2.390625,6.671875 0.433594,0.9375 0.882812,1.789062 1.332031,2.53125 0.429688,0.710937 0.878907,1.351562 1.320313,1.855469 0.089844,0.101562 0.203125,0.175781 0.332031,0.214843 0.558594,0.183594 1.109375,0.269531 1.65625,0.257813 0.179687,-0.0039 0.363281,-0.01953 0.542969,-0.04687 0.65625,-0.09766 1.292968,-0.335938 1.914062,-0.730469 0.5625,-0.359375 1.085938,-0.824219 1.585938,-1.367188 0.480468,-0.519531 0.933594,-1.101562 1.363281,-1.703124 0.890625,-1.25 1.691406,-2.546876 2.382813,-3.46875 0.414062,-0.550782 0.761718,-0.945313 1.070312,-1.222657 0.417969,-0.375 0.671875,-0.460937 0.78125,-0.480469 z m 86.144529,0 c 0.6211,-1.492188 1.47657,-3.632813 2.87891,-6.296876 1.37109,-2.605468 2.95312,-5.105468 4.58203,-7.140624 0.71094,-0.890626 1.40625,-1.65625 2.05859,-2.273438 0.6211,-0.589844 1.26172,-1.097656 1.89063,-1.507812 0.62109,-0.410157 1.24219,-0.730469 1.85937,-0.953126 0.30079,-0.109374 0.625,-0.207031 0.96875,-0.273437 0.16797,-0.03516 0.35938,-0.06641 0.56641,-0.08594 0.19922,-0.01953 0.44922,-0.02734 0.71875,-0.01172 1.375,0.08984 2.48047,0.824219 2.71875,1.800781 0.73047,2.957031 0.81641,5.953125 0.58984,8.738281 -0.1914,2.386719 -0.61718,4.644531 -1.07421,6.660157 -0.10938,0.484374 -0.22657,0.953124 -0.34766,1.410156 -0.67969,2.582031 -1.54688,4.867187 -2.38672,6.671875 -0.43359,0.9375 -0.88672,1.789062 -1.33203,2.53125 -0.42969,0.710937 -0.87891,1.351562 -1.32031,1.855469 -0.0898,0.101562 -0.20313,0.175781 -0.33203,0.214843 -0.5586,0.183594 -1.10938,0.269531 -1.65625,0.257813 -0.17969,-0.0039 -0.36329,-0.01953 -0.54688,-0.04687 -0.65234,-0.09766 -1.28906,-0.335938 -1.91016,-0.730469 -0.5625,-0.359375 -1.08593,-0.824219 -1.58593,-1.367188 -0.48438,-0.519531 -0.9336,-1.101562 -1.36328,-1.703124 -0.89063,-1.25 -1.69141,-2.546876 -2.38282,-3.46875 -0.41797,-0.550782 -0.76562,-0.945313 -1.07031,-1.222657 -0.41797,-0.375 -0.67187,-0.460937 -0.78125,-0.480469 z M 18.132812,60.46875 c -0.496093,0.351562 -0.996093,0.863281 -1.5,1.625 -0.351562,0.539062 -0.679687,1.15625 -1.007812,1.859375 -0.554688,1.191406 -1.097656,2.597656 -1.703125,3.859375 -0.292969,0.609375 -0.59375,1.171875 -0.914063,1.660156 -0.332031,0.503906 -0.667968,0.910156 -1.019531,1.210938 -0.382812,0.332031 -0.769531,0.53125 -1.164062,0.617187 -0.113281,0.02734 -0.226563,0.04297 -0.339844,0.05078 C 10.195312,71.371094 9.882812,71.339844 9.546875,71.25 9.230469,70.863281 8.902344,70.359375 8.578125,69.769531 8.199219,69.074219 7.828125,68.257812 7.484375,67.34375 6.816406,65.578125 6.207031,63.359375 5.835938,60.859375 5.769531,60.417969 5.710938,59.96875 5.664062,59.507812 5.449219,57.570312 5.449219,55.457031 5.722656,53.332031 6.042969,50.828125 6.726562,48.441406 7.78125,46.320312 l -2.722656,1.800782 c -0.179688,0.02344 -0.300782,0.03516 -0.390625,0.04687 -0.089844,0.01172 -0.140625,0.02734 -0.175781,0.05078 -0.066407,0.04297 -0.050782,0.121094 0.00391,0.222656 0.101562,0.195313 0.394531,0.535156 0.730468,0.90625 0.351563,0.378906 0.800782,0.84375 1.292969,1.320313 0.519531,0.507812 1.15625,1.097656 1.871094,1.777343 1.6875,1.613282 3.441406,3.378907 5.226563,5.488282 1.734374,2.046875 3.035156,3.886718 3.777343,5.113281 z m 91.734378,0 c 0.49609,0.351562 0.99609,0.863281 1.49609,1.625 0.35547,0.539062 0.67969,1.15625 1.01172,1.859375 0.55469,1.191406 1.09766,2.597656 1.70313,3.859375 0.29296,0.609375 0.58984,1.171875 0.91406,1.660156 0.33203,0.503906 0.66797,0.910156 1.01953,1.210938 0.38281,0.332031 0.76953,0.53125 1.16406,0.617187 0.11328,0.02734 0.22656,0.04297 0.33985,0.05078 0.28906,0.01953 0.60156,-0.01172 0.9375,-0.101562 0.3164,-0.386719 0.64453,-0.890625 0.96875,-1.480469 0.3789,-0.695312 0.75,-1.511719 1.09375,-2.425781 0.66796,-1.765625 1.27343,-3.984375 1.64843,-6.484375 0.0625,-0.441406 0.1211,-0.890625 0.17188,-1.351563 0.21094,-1.9375 0.21484,-4.050781 -0.0586,-6.175781 -0.32031,-2.503906 -1.0039,-4.890625 -2.05859,-7.011719 l 2.72266,1.800782 c 0.17968,0.02344 0.30078,0.03516 0.39062,0.04687 0.0859,0.01172 0.14063,0.02734 0.17578,0.05078 0.0625,0.04297 0.0508,0.121094 -0.004,0.222656 -0.10157,0.195313 -0.39453,0.535156 -0.73047,0.90625 -0.35156,0.378906 -0.80469,0.84375 -1.29297,1.320313 -0.51953,0.507812 -1.16016,1.097656 -1.87109,1.777343 -1.69141,1.613282 -3.44141,3.378907 -5.22657,5.488282 -1.73437,2.046875 -3.03515,3.886718 -3.77734,5.113281 z m 0,0"
     fill="url(#b)"
     id="path30"
     style="fill:url(#b)" />
  <path
     d="m 19.628906,55.644531 v 0.0039 c 0,0 0,0 -0.0039,0 0,0.0039 0,0.0039 0,0 0,0 0,0 -0.0039,0 v 0.0039 0.0039 0.0039 c 0,-0.0039 0,-0.0039 0,0 v 0.0039 0.0039 0.0039 l 0.01563,0.421875 h -0.0039 v 0.0039 c 0,0.0039 -0.0039,0.01172 -0.0039,0.01953 l 0.01563,2.050781 -0.03125,-2.015625 v -0.03906 -0.0039 -0.0078 l -0.0078,-0.425781 c 0,-0.0039 0,-0.0039 0,-0.0039 0,-0.0039 0,-0.0039 0,-0.0039 0,-0.0039 0,-0.0039 0,0 0,-0.0039 0,-0.0039 0,-0.0039 0,0 0,0 0,-0.0039 0,0 0,0 -0.0039,0 0,0 0,0 0,-0.0039 0,0 0,0 0,-0.0039 0,0 0,0 -0.0039,0 0,0 0,0 0,-0.0039 0,0 0,0 -0.0039,0 v 0.0039 c 0,0 0,0 -0.0039,0 v 0.0039 0.0039 c 0,0 0,0 -0.0039,0 v 0.0039 0.0039 0.0039 l -0.02734,0.992187 -0.40625,6.375 c -1.121094,0.910157 -1.796875,2.722657 -1.746094,4.683594 0.03125,1.101563 0.289062,2.167969 0.738281,3.046875 h -0.0078 v -0.0039 h -0.0039 c -0.308593,1.6875 -0.140624,3.6875 0.152344,5.609375 0.0078,0 0.01172,0 0.01563,0.0039 L 15.84375,114.97266 h -0.09766 v 1.52734 0.004 0.0898 c 0.0039,0.25391 0.0625,0.55078 0.15625,0.69141 0.710937,1.07031 1.453125,1.32812 2.246094,0.77343 0.710937,0.85547 1.425781,0.95704 2.15625,0.30469 0.0039,0 0.0078,0.004 0.0078,0.008 0.757812,0.79688 1.488281,0.80469 2.210938,0.0195 0.753906,0.57031 1.457031,0.38671 2.125,-0.55079 0.867187,0.60547 1.636718,0.3086 2.332031,-0.91015 0.04687,-0.082 0.07813,-0.22656 0.08203,-0.3711 0.0039,-0.043 0.0039,-0.0898 0,-0.1289 v -1.32422 H 26.90625 L 22.136719,76.152344 c 0.183593,-1.367188 0.21875,-2.628906 0.109375,-3.78125 1.234375,-0.84375 2.003906,-2.746094 1.949218,-4.832032 -0.07812,-2.863281 -1.65625,-5.144531 -3.53125,-5.09375 -0.06641,0.0039 -0.132812,0.0078 -0.203124,0.01563 l -0.792969,-6.496094 v -0.0039 h -0.0039 v -0.0078 l -0.02344,-0.285156 c 0,0 0,0 0,-0.0039 0,0 0,0 0,-0.0039 0,0 0,0 0,-0.0039 0,0 0,0 0,-0.0039 0,0 0,0 -0.0039,0 0,0 0,0 0,-0.0039 0,0 0,0 -0.0039,0 0,0 0,0 0,-0.0039 z m 88.742184,0 v 0.0039 c 0,0.0039 0.004,0.0039 0.004,0 v 0.0039 0.0039 0.0039 c 0,-0.0039 0.004,-0.0039 0.004,0 v 0.0039 0.0039 c 0,0 0,0 -0.004,0.0039 0.004,0 0.004,0 0,0 l -0.0156,0.421875 h 0.004 v 0.0039 c 0.004,0.0039 0.004,0.01172 0.004,0.01953 l -0.0156,2.050781 0.0312,-2.015625 v -0.03906 -0.0039 -0.0078 l 0.008,-0.425781 c 0,-0.0039 0,-0.0039 0,-0.0039 0,-0.0039 0,-0.0039 0,-0.0039 0,-0.0039 0,-0.0039 0,-0.0039 0,-0.0039 0,-0.0039 0,-0.0039 0,-0.0039 0,-0.0039 0,-0.0039 h 0.004 c 0,-0.0039 0,-0.0039 0,-0.0039 h 0.004 c 0,0 0,0 0,-0.0039 0,0.0039 0,0.0039 0,0 v 0.0039 h 0.004 v 0.0039 0.0039 h 0.004 v 0.0039 0.0039 0.0039 l 0.0273,0.992187 0.40625,6.375 c 1.1211,0.910157 1.79688,2.722657 1.7461,4.683594 -0.0312,1.101563 -0.28906,2.167969 -0.73828,3.046875 h 0.008 v -0.0039 h 0.004 c 0.30859,1.6875 0.14453,3.6875 -0.15235,5.609375 -0.008,0 -0.0117,0 -0.0156,0.0039 l 2.45703,38.593758 h 0.0977 v 1.52734 0.004 0.0898 c 0,0.25391 -0.0625,0.55078 -0.15625,0.69141 -0.71093,1.07031 -1.45312,1.32812 -2.24609,0.77343 -0.71094,0.85938 -1.42578,0.95704 -2.15625,0.30469 0,0 -0.004,0.004 -0.008,0.008 -0.75781,0.79688 -1.48828,0.80469 -2.21094,0.0195 -0.75,0.57031 -1.45703,0.38671 -2.125,-0.55079 -0.86719,0.60547 -1.63672,0.3086 -2.33203,-0.91015 -0.0469,-0.082 -0.0742,-0.22656 -0.082,-0.3711 -0.004,-0.043 -0.004,-0.0898 0,-0.1289 v -1.32422 h 0.15625 l 4.76953,-38.95313 c -0.17969,-1.367188 -0.21484,-2.628906 -0.10938,-3.78125 -1.23437,-0.84375 -2.0039,-2.746094 -1.94921,-4.832032 0.0781,-2.863281 1.65625,-5.144531 3.53125,-5.09375 0.0703,0.0039 0.13671,0.0078 0.20312,0.01563 l 0.79297,-6.496094 v -0.0039 h 0.004 v -0.0078 l 0.0234,-0.285156 c 0,-0.0039 0,-0.0039 0,-0.0039 0,-0.0039 0,-0.0039 0,-0.0039 0,-0.0039 0,-0.0039 0,-0.0039 h 0.004 c 0,-0.0039 0,-0.0039 0,-0.0039 h 0.004 c 0,-0.0039 0,-0.0039 0,-0.0039 h 0.004 z m 0,0"
     fill="url(#a)"
     fill-rule="evenodd"
     id="path25"
     style="fill:url(#a)" />
  <path
     d="m 19.605469,54.148438 0.933593,61.945312 c 0.0039,0.27344 -0.07812,0.59766 -0.1875,0.69922 -0.777343,0.72656 -1.53125,0.60547 -2.28125,-0.35547 -0.109374,-0.14062 -0.1875,-0.48828 -0.179687,-0.76562 l 1.695313,-61.527349 c 0,-0.02734 0.01953,-0.02734 0.01953,0.0039 z m 88.789061,0 -0.93359,61.945312 c -0.004,0.27344 0.0781,0.59766 0.1875,0.69922 0.77734,0.72656 1.53125,0.60547 2.28125,-0.35547 0.10937,-0.14062 0.1875,-0.48828 0.17969,-0.76562 l -1.69532,-61.527349 c 0,-0.02734 -0.0195,-0.02734 -0.0195,0.0039 z m -88.753905,-0.0078 5.144531,61.406252 c 0.02344,0.27343 -0.03516,0.625 -0.136718,0.76562 -0.707032,0.99609 -1.457032,1.14063 -2.257813,0.44531 -0.117187,-0.10156 -0.21875,-0.42187 -0.230469,-0.69922 L 19.621094,54.144531 c -0.0039,-0.03125 0.01563,-0.03516 0.01953,-0.0039 z m 88.718755,0 -5.14454,61.406252 c -0.0234,0.27343 0.0352,0.625 0.13672,0.76562 0.70703,0.99609 1.45313,1.14063 2.25782,0.44531 0.11718,-0.10156 0.21875,-0.42187 0.22656,-0.69922 l 2.54297,-61.914056 c 0.004,-0.03125 -0.0195,-0.03516 -0.0195,-0.0039 z m 0,0"
     fill="#c01c28"
     fill-rule="evenodd"
     id="path26"
     style="fill:url(#linearGradient27);fill-opacity:1" />
  <path
     d="m 19.613281,54.589844 -1.226562,61.265626 c -0.0039,0.27344 -0.09766,0.57812 -0.214844,0.66016 -0.800781,0.57812 -1.550781,0.32421 -2.269531,-0.75782 -0.105469,-0.15625 -0.171875,-0.51562 -0.15625,-0.78515 L 19.59375,54.582031 c 0,-0.02734 0.01953,-0.02344 0.01953,0.0078 z m 88.773439,0 1.22656,61.265626 c 0.004,0.27344 0.0977,0.57812 0.21485,0.66016 0.80078,0.57812 1.55078,0.32421 2.26953,-0.75782 0.10547,-0.15625 0.17187,-0.51562 0.15234,-0.78515 l -3.84375,-60.390629 c 0,-0.02734 -0.0195,-0.02344 -0.0195,0.0078 z m -88.738282,0 3.105468,61.464846 c 0.01563,0.27344 -0.05859,0.60937 -0.164062,0.73437 -0.742188,0.85938 -1.496094,0.87891 -2.277344,0.0547 -0.109375,-0.11719 -0.203125,-0.44922 -0.203125,-0.72656 L 19.628906,54.589844 c 0,-0.03125 0.01953,-0.03125 0.01953,0 z m 88.703122,0 -3.10547,61.464846 c -0.0156,0.27344 0.0586,0.60937 0.16407,0.73437 0.74218,0.85938 1.49609,0.87891 2.27343,0.0547 0.11329,-0.11719 0.20313,-0.44922 0.20704,-0.72656 l 0.48046,-61.527346 c 0,-0.03125 -0.0195,-0.03125 -0.0195,0 z M 19.667969,54.4375 l 7.390625,60.39453 c 0.02344,0.19141 -0.01172,0.44922 -0.07813,0.57031 -0.695313,1.21875 -1.464844,1.51954 -2.332031,0.91016 -0.08594,-0.0586 -0.164063,-0.27344 -0.179688,-0.47266 L 19.652344,54.441406 c -0.0039,-0.01953 0.01172,-0.02344 0.01563,-0.0039 z m 88.664061,0 -7.39062,60.39453 c -0.0234,0.19141 0.008,0.44922 0.0781,0.57031 0.69531,1.21875 1.46485,1.51954 2.33203,0.91016 0.082,-0.0586 0.16407,-0.27344 0.17969,-0.47266 l 4.81641,-61.398434 c 0,-0.01953 -0.0117,-0.02344 -0.0156,-0.0039 z m 0,0"
     fill="#e01b24"
     fill-rule="evenodd"
     id="path27"
     style="fill:url(#linearGradient67);fill-opacity:1" />
  <path
     d="m 24.195312,66.011719 c 0.07422,2.863281 -1.382812,5.226562 -3.257812,5.277343 -1.875,0.05078 -3.453125,-2.230468 -3.53125,-5.09375 -0.07422,-2.863281 1.382812,-5.226562 3.257812,-5.277343 1.871094,-0.05078 3.453126,2.230469 3.53125,5.09375 z m 79.609378,0 c -0.0742,2.863281 1.38281,5.226562 3.25781,5.277343 1.87109,0.05078 3.45313,-2.230468 3.53125,-5.09375 0.0742,-2.863281 -1.38281,-5.226562 -3.25781,-5.277343 -1.8711,-0.05078 -3.45313,2.230469 -3.53125,5.09375 z m 0,0"
     fill="#c01c28"
     fill-rule="evenodd"
     id="path28" />
  <path
     d="m 18.132812,69.238281 c 1.925782,0.375 1.871094,0.402344 3.832032,-0.07813 0.398437,1.609375 0.449218,3.480469 0.152344,5.609375 -1.808594,0.714844 -1.753907,0.691407 -3.832032,0.07813 -0.296875,-1.921875 -0.460937,-3.921875 -0.152344,-5.609375 z m 91.734378,0 c -1.92578,0.375 -1.8711,0.402344 -3.83203,-0.07813 -0.39844,1.609375 -0.44922,3.480469 -0.15235,5.609375 1.8086,0.714844 1.75,0.691407 3.83203,0.07813 0.29297,-1.921875 0.46094,-3.921875 0.15235,-5.609375 z m 0,0"
     fill="#ed333b"
     fill-rule="evenodd"
     id="path29"
     style="fill:#e01b24" />
  <path
     d="M 15.929688,10.566406 C 15.6875,27 9.921875,43.371094 21.851562,62.375 c 0,0 -0.273437,20.21875 -0.273437,28.152344 0,9.363281 11.199219,17.105466 23.019531,20.273436 C 50.816406,112.46875 56.617188,120 64,120 c 7.382812,0 13.183594,-7.53125 19.398438,-9.19922 11.824218,-3.16797 23.019532,-10.910155 23.019532,-20.273436 0,-7.933594 -0.27344,-28.152344 -0.27344,-28.152344 11.92969,-19.003906 6.16797,-35.375 5.92188,-51.808594 -8.3086,10.039063 -12.105472,19.003906 -25.984379,22.574219 0,0 -12.078125,1.554687 -22.082031,1.566406 C 53.996094,34.695312 41.914062,33.140625 41.914062,33.140625 28.039062,29.570312 24.242188,20.605469 15.929688,10.566406 Z m 0,0"
     fill="url(#c)"
     fill-rule="evenodd"
     id="path31"
     style="fill:url(#c)" />
  <path
     d="M 15.929688,8.566406 C 15.6875,25 9.921875,41.371094 21.851562,60.375 c 0,0 -0.273437,20.21875 -0.273437,28.152344 0,9.363281 11.199219,17.105466 23.019531,20.273436 C 50.816406,110.46875 58.804688,118 64,118 c 5.195312,0 13.183594,-7.53125 19.398438,-9.19922 11.824218,-3.16797 23.019532,-10.910155 23.019532,-20.273436 0,-7.933594 -0.27344,-28.152344 -0.27344,-28.152344 11.92969,-19.003906 6.16797,-35.375 5.92188,-51.808594 -8.3086,10.039063 -12.105472,19.003906 -25.984379,22.574219 0,0 -12.078125,1.554687 -22.082031,1.566406 C 53.996094,32.695312 41.914062,31.140625 41.914062,31.140625 28.039062,27.570312 24.242188,18.605469 15.929688,8.566406 Z m 0,0"
     fill="url(#d)"
     fill-rule="evenodd"
     id="path32"
     style="fill:url(#d)" />
  <path
     d="m 56.574219,93.542969 c 0,0 -2.179688,-15.46875 -18.460938,-16.378907 -9.835937,-0.546874 -13.324219,-7.574218 -13.324219,-7.574218 0,0 0.363282,17.320312 15.390626,19.996094 11.949218,2.125 16.394531,3.957031 16.394531,3.957031 z m 14.851562,0 c 0,0 2.179688,-15.46875 18.460938,-16.378907 9.835937,-0.546874 13.324221,-7.574218 13.324221,-7.574218 0,0 -0.36328,17.320312 -15.394534,19.996094 -11.945312,2.125 -16.390625,3.957031 -16.390625,3.957031 z m 0,0"
     fill="#241f31"
     fill-rule="evenodd"
     id="path33" />
  <path
     d="M 74.929688,83.679688"
     id="path58" />
  <path
     d="m 74.929688,83.679688 c 0,2.904839 4.929687,3.335937 8.378906,3.335937 8.289062,0 13.4375,-8.058594 13.4375,-11.382813 0,-3.324218 -9.058594,0.9375 -12.863282,0.9375 -3.800781,0 -8.953124,7.109376 -8.953124,7.109376 z"
     id="path57"
     style="fill:url(#linearGradient63);fill-opacity:1" />
  <path
     d="m 53.070312,83.679688 c 0,3.019215 -4.929687,3.335937 -8.378906,3.335937 -8.289062,0 -13.441406,-8.058594 -13.441406,-11.382813 0,-3.324218 9.0625,0.9375 12.867188,0.9375 3.800781,0 8.953124,7.109376 8.953124,7.109376 z"
     id="path34"
     style="fill:url(#linearGradient59);fill-opacity:1" />
  <path
     d="m 46.804688,79.964844 c 0,2.515625 -1.082032,6.144531 -1.082032,6.144531 0,0 -1.125,-4.035156 -1.125,-6.550781 0,-2.515625 0.164063,-3.925782 1.125,-3.925782 0.964844,0 1.082032,1.816407 1.082032,4.332032 z m 34.386718,0 c 0,2.515625 1.082032,6.144531 1.082032,6.144531 0,0 1.128906,-4.035156 1.128906,-6.550781 0,-2.515625 -0.164063,-3.925782 -1.128906,-3.925782 -0.960938,0 -1.082032,1.816407 -1.082032,4.332032 z m 0,0"
     fill="#241f31"
     fill-rule="evenodd"
     id="path35" />
  <path
     d="m 20.128906,56.890625 c 0,0 1.855469,13.207031 3.335938,18.742187 2.175781,8.109376 7.582031,15.421876 16.230468,15.421876 12.863282,0 17.53125,3.628906 17.53125,3.628906 0,0 -0.714843,-20.746094 -20.320312,-22.152344 C 21.445312,71.421875 20.128906,56.890625 20.128906,56.890625 Z m 87.738284,0 c 0,0 -1.85156,13.207031 -3.33203,18.742187 -2.17578,8.109376 -7.582035,15.421876 -16.230472,15.421876 -12.863282,0 -17.53125,3.628906 -17.53125,3.628906 0,0 0.710937,-20.746094 20.320312,-22.152344 15.46094,-1.109375 16.77344,-15.640625 16.77344,-15.640625 z M 24.789062,69.589844 c 0,0 2.855469,7.34375 12.707032,7.53125 16.171875,0.3125 18.695312,15.84375 18.695312,15.84375 0,0 -2.859375,-4.179688 -16.617187,-4.429688 C 26.09375,88.292969 24.605469,69.539062 24.789062,69.589844 Z m 78.421878,0 c 0,0 -2.85547,7.34375 -12.707034,7.53125 -16.171875,0.3125 -18.695312,15.84375 -18.695312,15.84375 0,0 2.859375,-4.179688 16.617187,-4.429688 13.476559,-0.242187 14.968749,-18.996094 14.785159,-18.945312 z m 0,0"
     fill="#f66151"
     fill-rule="evenodd"
     id="path36" />
  <path
     d="m 63.976562,95.625 c 0,0 -2.746093,6.13672 -3.324218,8.35547 -0.210938,0.82422 2.847656,2.99219 3.324218,2.99219 0.0078,0 0.01563,0.004 0.02344,0 0.0078,0.004 0.01563,0 0.02344,0 0.476562,0 3.535156,-2.16797 3.320312,-2.99219 -0.574219,-2.21875 -3.320312,-8.35547 -3.320312,-8.35547 0,0 -0.0078,0.01563 -0.02344,0.04687 -0.01563,-0.03125 -0.02344,-0.04687 -0.02344,-0.04687 z m 0,0"
     fill="#f66151"
     fill-rule="evenodd"
     id="path37" />
  <path
     d="m 22.859375,82.046875 c 0,0 1.539063,6.242187 5.976563,9.445313 8.183593,5.902343 19.148437,0.148437 26.433593,4.351562 -9.472656,-3.320312 -19.890625,4.74219 -28.6875,-2.550781 -4.3125,-3.570313 -3.722656,-11.246094 -3.722656,-11.246094 z m 82.281255,0 c 0,0 -1.53907,6.242187 -5.976568,9.445313 -8.183593,5.902343 -19.148437,0.148437 -26.433593,4.351562 9.472656,-3.320312 19.890625,4.74219 28.687501,-2.550781 4.3125,-3.570313 3.72266,-11.246094 3.72266,-11.246094 z m 0,0"
     fill="#f66151"
     fill-rule="evenodd"
     id="path38" />
  <path
     d="m 20.925781,60.042969 c -0.617187,-1.492188 -1.472656,-3.632813 -2.875,-6.296875 C 16.679688,51.140625 15.097656,48.640625 13.46875,46.605469 12.753906,45.714844 12.0625,44.949219 11.410156,44.332031 10.789062,43.746094 10.148438,43.238281 9.519531,42.824219 8.898438,42.414062 8.277344,42.09375 7.660156,41.871094 7.359375,41.761719 7.035156,41.664062 6.691406,41.597656 6.523438,41.5625 6.328125,41.53125 6.125,41.511719 5.925781,41.496094 5.675781,41.484375 5.40625,41.5 c -1.375,0.09375 -2.480469,0.824219 -2.722656,1.800781 -0.726563,2.957031 -0.8125,5.953125 -0.585938,8.738281 0.191406,2.386719 0.613282,4.644532 1.074219,6.660157 0.109375,0.484375 0.226563,0.953125 0.34375,1.410156 0.683594,2.582031 1.550781,4.867187 2.390625,6.671875 0.433594,0.9375 0.882812,1.789062 1.332031,2.53125 0.429688,0.710938 0.878907,1.351562 1.320313,1.855469 0.089844,0.101562 0.203125,0.175781 0.332031,0.21875 0.558594,0.179687 1.109375,0.269531 1.65625,0.253906 0.179687,-0.0039 0.363281,-0.01953 0.542969,-0.04687 0.65625,-0.09375 1.292968,-0.335938 1.914062,-0.730469 0.5625,-0.359375 1.085938,-0.824219 1.585938,-1.363281 0.480468,-0.523438 0.933594,-1.105469 1.363281,-1.707031 0.890625,-1.25 1.691406,-2.546875 2.382813,-3.46875 0.414062,-0.550781 0.761718,-0.941407 1.070312,-1.21875 0.417969,-0.378907 0.671875,-0.464844 0.78125,-0.484375 z m 86.144529,0 c 0.6211,-1.492188 1.47657,-3.632813 2.87891,-6.296875 1.37109,-2.605469 2.95312,-5.105469 4.58203,-7.140625 0.71094,-0.890625 1.40625,-1.65625 2.05859,-2.273438 0.6211,-0.585937 1.26172,-1.09375 1.89063,-1.507812 0.62109,-0.410157 1.24219,-0.730469 1.85937,-0.953125 0.30079,-0.109375 0.625,-0.207032 0.96875,-0.273438 0.16797,-0.03516 0.35938,-0.06641 0.56641,-0.08594 0.19922,-0.01563 0.44922,-0.02734 0.71875,-0.01172 1.375,0.09375 2.48047,0.824219 2.71875,1.800781 0.73047,2.957031 0.81641,5.953125 0.58984,8.738281 -0.1914,2.386719 -0.61718,4.644532 -1.07421,6.660157 -0.10938,0.484375 -0.22657,0.953125 -0.34766,1.410156 -0.67969,2.582031 -1.54688,4.867187 -2.38672,6.671875 -0.43359,0.9375 -0.88672,1.789062 -1.33203,2.53125 -0.42969,0.710938 -0.87891,1.351562 -1.32031,1.855469 -0.0898,0.101562 -0.20313,0.175781 -0.33203,0.21875 -0.5586,0.179687 -1.10938,0.269531 -1.65625,0.253906 -0.17969,-0.0039 -0.36329,-0.01953 -0.54688,-0.04687 -0.65234,-0.09375 -1.28906,-0.335938 -1.91016,-0.730469 -0.5625,-0.359375 -1.08593,-0.824219 -1.58593,-1.363281 -0.48438,-0.523438 -0.9336,-1.105469 -1.36328,-1.707031 -0.89063,-1.25 -1.69141,-2.546875 -2.38282,-3.46875 -0.41797,-0.550781 -0.76562,-0.941407 -1.07031,-1.21875 -0.41797,-0.378907 -0.67187,-0.464844 -0.78125,-0.484375 z M 18.132812,59.238281 c -0.496093,0.355469 -0.996093,0.863281 -1.5,1.625 -0.351562,0.539063 -0.679687,1.15625 -1.007812,1.859375 -0.554688,1.191406 -1.097656,2.597656 -1.703125,3.859375 -0.292969,0.609375 -0.59375,1.171875 -0.914063,1.660157 -0.332031,0.503906 -0.667968,0.910156 -1.019531,1.210937 -0.382812,0.332031 -0.769531,0.53125 -1.164062,0.617187 -0.113281,0.02734 -0.226563,0.04297 -0.339844,0.05078 -0.289063,0.01953 -0.601563,-0.01172 -0.9375,-0.101563 C 9.230469,69.632812 8.902344,69.132812 8.578125,68.539062 8.199219,67.84375 7.828125,67.027344 7.484375,66.117188 6.816406,64.347656 6.207031,62.128906 5.835938,59.628906 5.769531,59.1875 5.710938,58.738281 5.664062,58.277344 c -0.214843,-1.9375 -0.214843,-4.050782 0.058594,-6.175782 0.320313,-2.5 1.003906,-4.890624 2.058594,-7.007812 l -2.722656,1.796875 c -0.179688,0.02734 -0.300782,0.03516 -0.390625,0.04687 -0.089844,0.01172 -0.140625,0.02734 -0.175781,0.05078 -0.066407,0.04687 -0.050782,0.121094 0.00391,0.222657 0.101562,0.195312 0.394531,0.539062 0.730468,0.90625 0.351563,0.378906 0.800782,0.84375 1.292969,1.320312 0.519531,0.507812 1.15625,1.097656 1.871094,1.777344 1.6875,1.613281 3.441406,3.378906 5.226563,5.488281 1.734374,2.046875 3.035156,3.886719 3.777343,5.113281 z m 91.734378,0 c 0.49609,0.355469 0.99609,0.863281 1.49609,1.625 0.35547,0.539063 0.67969,1.15625 1.01172,1.859375 0.55469,1.191406 1.09766,2.597656 1.70313,3.859375 0.29296,0.609375 0.58984,1.171875 0.91406,1.660157 0.33203,0.503906 0.66797,0.910156 1.01953,1.210937 0.38281,0.332031 0.76953,0.53125 1.16406,0.617187 0.11328,0.02734 0.22656,0.04297 0.33985,0.05078 0.28906,0.01953 0.60156,-0.01172 0.9375,-0.101563 0.3164,-0.386719 0.64453,-0.886719 0.96875,-1.480469 0.3789,-0.695312 0.75,-1.511718 1.09375,-2.421874 0.66796,-1.769532 1.27343,-3.988282 1.64843,-6.488282 0.0625,-0.441406 0.1211,-0.890625 0.17188,-1.351562 0.21094,-1.9375 0.21484,-4.050782 -0.0586,-6.175782 -0.32031,-2.5 -1.0039,-4.890624 -2.05859,-7.007812 l 2.72266,1.796875 c 0.17968,0.02734 0.30078,0.03516 0.39062,0.04687 0.0859,0.01172 0.14063,0.02734 0.17578,0.05078 0.0625,0.04687 0.0508,0.121094 -0.004,0.222657 -0.10157,0.195312 -0.39453,0.539062 -0.73047,0.90625 -0.35156,0.378906 -0.80469,0.84375 -1.29297,1.320312 -0.51953,0.507812 -1.16016,1.097656 -1.87109,1.777344 -1.69141,1.613281 -3.44141,3.378906 -5.22657,5.488281 -1.73437,2.046875 -3.03515,3.886719 -3.77734,5.113281 z m 0,0"
     fill="#c01c28"
     id="path39" />
  <path
     d="m 15.929688,8.566406 c 0,0 2.664062,16.832032 7.269531,22.785156 4.644531,6.003907 9.128906,4.285157 9.128906,8.5625 0,6.097657 -4.523437,12.421876 -7.613281,17.257813 C 16.796875,49.609375 16.457031,27.6875 15.929688,8.566406 Z m 96.136722,0 c 0,0 -2.66016,16.832032 -7.26563,22.785156 -4.64453,6.003907 -9.128905,4.285157 -9.128905,8.5625 0,6.097657 4.523435,12.421876 7.613285,17.257813 7.91797,-7.5625 8.2539,-29.484375 8.78125,-48.605469 z m 0,0"
     fill="#f66151"
     fill-rule="evenodd"
     id="path40" />
  <path
     d="m 60.101562,73.625 c 0.03906,0.710938 -1.5,1.375 -3.441406,1.488281 -1.941406,0.117188 -3.550781,-0.367187 -3.589844,-1.078125 -0.04297,-0.707031 1.496094,-1.375 3.4375,-1.488281 1.945313,-0.113281 3.550782,0.371094 3.59375,1.078125 z m 7.796876,0 c -0.03906,0.710938 1.5,1.375 3.441406,1.488281 1.941406,0.117188 3.550781,-0.367187 3.589844,-1.078125 0.04297,-0.707031 -1.5,-1.375 -3.441407,-1.488281 -1.941406,-0.113281 -3.546875,0.371094 -3.589843,1.078125 z m 0,0"
     fill="#f66151"
     fill-rule="evenodd"
     id="path41" />
  <path
     d="m 18.550781,61.519531 c 0.457031,-1.597656 1.273438,-4.378906 2.363281,-7.667969 0.429688,-1.304687 0.871094,-2.585937 1.3125,-3.8125 0.324219,-0.898437 0.65625,-1.824218 0.996094,-2.75 0.339844,-0.914062 0.683594,-1.828124 1.019532,-2.675781 0.3125,-0.78125 0.628906,-1.535156 0.9375,-2.191406 0.148437,-0.320313 0.300781,-0.628906 0.457031,-0.917969 0.148437,-0.277344 0.316406,-0.5625 0.496093,-0.820312 0.171876,-0.25 0.394532,-0.53125 0.675782,-0.789063 0.140625,-0.128906 0.316406,-0.269531 0.53125,-0.398437 0.210937,-0.125 0.484375,-0.257813 0.816406,-0.34375 1.164062,-0.296875 2.421875,0.34375 3.023438,1.539062 2.238281,4.4375 3.507812,9.183594 3.84375,13.46875 0.05469,0.699219 0.08203,1.394532 0.08594,2.09375 0.01563,2.503906 -0.296875,4.953125 -0.917969,7.175782 -0.617187,2.214843 -1.53125,4.160156 -2.683594,5.714843 -0.257812,0.328125 -0.550781,0.621094 -0.890624,0.847657 -0.34375,0.234374 -0.71875,0.390624 -1.109376,0.457031 -0.390624,0.06641 -0.757812,0.03516 -1.082031,-0.04687 -0.328125,-0.08594 -0.613281,-0.226563 -0.863281,-0.378906 -0.257812,-0.15625 -0.496094,-0.339844 -0.714844,-0.527344 -0.226562,-0.195313 -0.449218,-0.40625 -0.664062,-0.617188 -0.316406,-0.316406 -0.667969,-0.683594 -0.980469,-1.011718 0.1875,0.195312 -0.566406,-0.585938 -0.378906,-0.390626 -0.972657,-1.011718 -2.003907,-2.066406 -2.992188,-2.917968 -0.558593,-0.480469 -1.042969,-0.84375 -1.46875,-1.117188 -0.605469,-0.386718 -0.992187,-0.515625 -1.214843,-0.585937 z m 90.898439,0 c -0.46094,-1.597656 -1.27344,-4.378906 -2.36328,-7.667969 -0.42969,-1.304687 -0.8711,-2.585937 -1.3125,-3.8125 -0.32422,-0.898437 -0.66016,-1.824218 -1,-2.75 -0.33594,-0.914062 -0.67969,-1.828124 -1.01953,-2.675781 -0.3086,-0.78125 -0.625,-1.535156 -0.9336,-2.191406 -0.14843,-0.320313 -0.30078,-0.628906 -0.45703,-0.917969 -0.15234,-0.277344 -0.3164,-0.5625 -0.49609,-0.820312 -0.17188,-0.25 -0.39453,-0.53125 -0.67578,-0.789063 -0.14063,-0.128906 -0.31641,-0.269531 -0.53125,-0.398437 -0.21094,-0.125 -0.48438,-0.257813 -0.81641,-0.34375 -1.164062,-0.296875 -2.421875,0.34375 -3.027344,1.539062 -2.234375,4.4375 -3.503906,9.183594 -3.839844,13.46875 -0.05469,0.695313 -0.08203,1.394532 -0.08984,2.09375 -0.01172,2.503906 0.300781,4.953125 0.921875,7.175782 0.617187,2.214843 1.53125,4.160156 2.683594,5.714843 0.257812,0.328125 0.550781,0.621094 0.886718,0.847657 0.347656,0.234374 0.722656,0.390624 1.109375,0.457031 0.394531,0.06641 0.761719,0.03516 1.085938,-0.04687 0.324219,-0.08594 0.613278,-0.226563 0.863278,-0.378906 0.25781,-0.15625 0.49609,-0.339844 0.71484,-0.527344 0.22657,-0.195313 0.44922,-0.40625 0.66407,-0.617188 0.3164,-0.316406 0.66797,-0.683594 0.98047,-1.011718 -0.1875,0.195312 0.5625,-0.585938 0.3789,-0.390626 0.97266,-1.011718 2.00391,-2.066406 2.99219,-2.917968 0.55469,-0.480469 1.03906,-0.847656 1.46875,-1.117188 0.60547,-0.386718 0.99219,-0.515625 1.21484,-0.585937 z M 19.996094,60.871094 c 0.398437,0.195312 0.890625,0.539062 1.507812,1.117187 0.4375,0.410157 0.894532,0.894531 1.410156,1.464844 0.878907,0.972656 1.902344,2.179687 2.851563,3.066406 0.132813,0.121094 0.261719,0.238281 0.386719,0.347657 0.335937,0.285156 0.6875,0.542968 1.027344,0.746093 0.222656,0.128907 0.441406,0.234375 0.644531,0.304688 0.199219,0.07031 0.375,0.105469 0.523437,0.105469 0.140625,0 0.242188,-0.03125 0.289063,-0.08984 0.04297,-0.05469 0.02344,-0.113282 -0.02734,-0.164063 -0.04687,-0.04687 -0.113281,-0.07422 -0.152344,-0.121093 -0.04297,-0.04688 -0.05469,-0.113282 -0.05469,-0.246094 0.484375,-1.359375 0.78125,-3.003906 0.910156,-4.867188 0.128906,-1.878906 0.08203,-3.917968 -0.08984,-6.042968 -0.05079,-0.589848 -0.10938,-1.179692 -0.17188,-1.773442 -0.410156,-3.675781 -1.230469,-7.769531 -2.804687,-11.804688 l 3.023437,1.539063 c 0.238281,-0.06641 0.410157,-0.15625 0.515625,-0.230469 0.109375,-0.07422 0.171875,-0.140625 0.199219,-0.183594 0.06641,-0.09375 0.0078,-0.101562 -0.07031,-0.0625 -0.08594,0.04297 -0.207031,0.140626 -0.347656,0.277344 -0.144531,0.140625 -0.308594,0.320313 -0.484375,0.535156 -0.363281,0.449219 -0.769531,1.019532 -1.1875,1.675782 -0.449219,0.707031 -0.910156,1.496094 -1.359375,2.320312 -0.449218,0.824219 -0.882812,1.679688 -1.28125,2.515625 -0.550781,1.144531 -1.101562,2.351563 -1.644531,3.585938 -1.355469,3.074219 -2.441406,5.828125 -3.015625,7.320312 z m 88.007816,0 c -0.39844,0.195312 -0.89063,0.539062 -1.50782,1.117187 -0.4414,0.410157 -0.89453,0.894531 -1.41015,1.464844 -0.87891,0.972656 -1.90235,2.179687 -2.85547,3.066406 -0.12891,0.121094 -0.25781,0.238281 -0.38672,0.347657 -0.33203,0.285156 -0.68359,0.542968 -1.02344,0.746093 -0.22265,0.128907 -0.4414,0.234375 -0.64453,0.304688 -0.199218,0.07031 -0.374999,0.105469 -0.523436,0.105469 -0.140625,0 -0.242188,-0.03125 -0.289063,-0.08984 -0.04297,-0.05469 -0.02344,-0.113282 0.02344,-0.164063 0.05078,-0.04687 0.117187,-0.07422 0.15625,-0.121093 0.04297,-0.04688 0.05469,-0.113282 0.05469,-0.246094 -0.484375,-1.359375 -0.78125,-3.003906 -0.910156,-4.867188 -0.128906,-1.878906 -0.08203,-3.917968 0.08984,-6.042968 0.05078,-0.585938 0.105468,-1.179688 0.171875,-1.773438 0.410156,-3.675781 1.23047,-7.769531 2.80469,-11.804688 l -3.02344,1.539063 c -0.238281,-0.06641 -0.410157,-0.15625 -0.515625,-0.230469 -0.109375,-0.07422 -0.171875,-0.140625 -0.199219,-0.183594 -0.06641,-0.09375 -0.0078,-0.101562 0.07031,-0.0625 0.08203,0.04297 0.207031,0.140626 0.347656,0.277344 0.144531,0.140625 0.308594,0.320313 0.484375,0.535156 0.363281,0.449219 0.769531,1.019532 1.183593,1.675782 0.45313,0.707031 0.91407,1.496094 1.36328,2.320312 0.44922,0.824219 0.88282,1.679688 1.28125,2.515625 0.55079,1.144531 1.10157,2.351563 1.64454,3.585938 1.35546,3.074219 2.4414,5.828125 3.01171,7.320312 z m 0,0"
     fill="#a51d2d"
     id="path42" />
  <path
     d="m 15.933594,9.171875 c 0,0 2.855468,14.382813 5.101562,19.515625 3.589844,8.199219 11.210938,12.683594 11.210938,12.683594 0.04687,-0.441406 0.08203,-1.015625 0.08203,-1.457032 0,-4.277343 -3.871094,-2.355468 -8.503906,-8.214843 -4.242188,-5.363281 -6.695313,-18.625 -7.890624,-22.527344 z m 96.132816,0 c 0,0 -2.85547,14.382813 -5.10547,19.515625 -3.58985,8.199219 -11.207034,12.683594 -11.207034,12.683594 -0.04687,-0.441406 -0.08203,-1.015625 -0.08203,-1.457032 0,-4.277343 3.871094,-2.355468 8.503904,-8.214843 4.23828,-5.363281 6.69531,-18.625 7.89063,-22.527344 z m 0,0"
     fill="#c0bfbc"
     fill-rule="evenodd"
     id="path43" />
  <path
     d="M 18.550781,59.671875 C 19.007812,58.070312 19.824219,55.292969 20.914062,52 c 0.429688,-1.300781 0.871094,-2.585938 1.3125,-3.8125 0.324219,-0.894531 0.65625,-1.824219 0.996094,-2.746094 0.339844,-0.917968 0.683594,-1.828125 1.019532,-2.679687 0.3125,-0.777344 0.628906,-1.535157 0.9375,-2.191407 0.148437,-0.316406 0.300781,-0.628906 0.457031,-0.914062 0.148437,-0.28125 0.316406,-0.5625 0.496093,-0.824219 0.171876,-0.25 0.394532,-0.53125 0.675782,-0.785156 0.140625,-0.132813 0.316406,-0.269531 0.53125,-0.398437 0.210937,-0.128907 0.484375,-0.257813 0.816406,-0.34375 1.164062,-0.296876 2.421875,0.34375 3.023438,1.539062 2.238281,4.4375 3.507812,9.179688 3.84375,13.464844 0.05469,0.699218 0.08203,1.398437 0.08594,2.09375 0.01563,2.507812 -0.296875,4.953125 -0.917969,7.179687 -0.617187,2.210938 -1.53125,4.15625 -2.683594,5.710938 -0.257812,0.332031 -0.550781,0.621093 -0.890624,0.847656 -0.34375,0.234375 -0.71875,0.390625 -1.109376,0.457031 -0.390624,0.06641 -0.757812,0.03906 -1.082031,-0.04687 -0.328125,-0.08594 -0.613281,-0.222656 -0.863281,-0.375 -0.257812,-0.15625 -0.496094,-0.34375 -0.714844,-0.527343 -0.226562,-0.195313 -0.449218,-0.410157 -0.664062,-0.621094 -0.316406,-0.3125 -0.667969,-0.683594 -0.980469,-1.007813 0.1875,0.195313 -0.566406,-0.589843 -0.378906,-0.394531 -0.972657,-1.011719 -2.003907,-2.066406 -2.992188,-2.917969 -0.558593,-0.480469 -1.042969,-0.84375 -1.46875,-1.117187 -0.605469,-0.382813 -0.992187,-0.515625 -1.214843,-0.585938 z m 90.898439,0 C 108.98828,58.070312 108.17578,55.292969 107.08594,52 c -0.42969,-1.300781 -0.8711,-2.585938 -1.3125,-3.8125 -0.32422,-0.894531 -0.66016,-1.824219 -1,-2.746094 -0.33594,-0.917968 -0.67969,-1.828125 -1.01953,-2.679687 -0.3086,-0.777344 -0.625,-1.535157 -0.9336,-2.191407 -0.14843,-0.316406 -0.30078,-0.628906 -0.45703,-0.914062 -0.15234,-0.28125 -0.3164,-0.5625 -0.49609,-0.824219 -0.17188,-0.25 -0.39453,-0.53125 -0.67578,-0.785156 -0.14063,-0.132813 -0.31641,-0.269531 -0.53125,-0.398437 -0.21094,-0.128907 -0.48438,-0.257813 -0.81641,-0.34375 -1.164062,-0.296876 -2.421875,0.34375 -3.027344,1.539062 -2.234375,4.4375 -3.503906,9.179688 -3.839844,13.464844 -0.05469,0.699218 -0.08203,1.398437 -0.08984,2.09375 -0.01172,2.507812 0.300781,4.953125 0.921875,7.179687 0.617187,2.210938 1.53125,4.15625 2.683594,5.710938 0.257812,0.332031 0.550781,0.621093 0.886718,0.847656 0.347656,0.234375 0.722656,0.390625 1.109375,0.457031 0.394531,0.06641 0.761719,0.03906 1.085938,-0.04687 0.324219,-0.08594 0.613278,-0.222656 0.863278,-0.375 0.25781,-0.15625 0.49609,-0.34375 0.71484,-0.527343 0.22657,-0.195313 0.44922,-0.410157 0.66407,-0.621094 0.3164,-0.3125 0.66797,-0.683594 0.98047,-1.007813 -0.1875,0.195313 0.5625,-0.589843 0.3789,-0.394531 0.97266,-1.011719 2.00391,-2.066406 2.99219,-2.917969 0.55469,-0.480469 1.03906,-0.84375 1.46875,-1.117187 0.60547,-0.382813 0.99219,-0.515625 1.21484,-0.585938 z M 19.996094,59.019531 c 0.398437,0.195313 0.890625,0.539063 1.507812,1.121094 0.4375,0.410156 0.894532,0.890625 1.410156,1.464844 0.878907,0.972656 1.902344,2.175781 2.851563,3.0625 0.132813,0.121093 0.261719,0.238281 0.386719,0.347656 0.335937,0.289063 0.6875,0.546875 1.027344,0.746094 0.222656,0.128906 0.441406,0.234375 0.644531,0.308593 0.199219,0.06641 0.375,0.105469 0.523437,0.105469 0.140625,0 0.242188,-0.03516 0.289063,-0.08984 0.04297,-0.05469 0.02344,-0.117188 -0.02734,-0.164063 -0.04687,-0.04687 -0.113281,-0.07422 -0.152344,-0.121094 -0.04297,-0.05078 -0.05469,-0.117187 -0.05469,-0.25 0.484375,-1.359375 0.78125,-3 0.910156,-4.863281 0.128906,-1.878906 0.08203,-3.917969 -0.08984,-6.042969 -0.05078,-0.589843 -0.109375,-1.183593 -0.171875,-1.777343 -0.410156,-3.671876 -1.230469,-7.769532 -2.804687,-11.800782 l 3.023437,1.535156 c 0.238281,-0.0625 0.410157,-0.15625 0.515625,-0.230468 0.109375,-0.07422 0.171875,-0.140625 0.199219,-0.183594 0.06641,-0.08984 0.0078,-0.09766 -0.07031,-0.0625 -0.08594,0.04297 -0.207031,0.140625 -0.347656,0.277344 -0.144531,0.144531 -0.308594,0.324218 -0.484375,0.539062 -0.363281,0.445313 -0.769531,1.019532 -1.1875,1.671875 -0.449219,0.707031 -0.910156,1.5 -1.359375,2.320313 -0.449218,0.828125 -0.882812,1.683594 -1.28125,2.515625 -0.550781,1.148437 -1.101562,2.351562 -1.644531,3.585937 -1.355469,3.074219 -2.441406,5.832032 -3.015625,7.320313 z m 88.007816,0 c -0.39844,0.195313 -0.89063,0.539063 -1.50782,1.121094 -0.4414,0.410156 -0.89453,0.890625 -1.41015,1.464844 -0.87891,0.972656 -1.90235,2.175781 -2.85547,3.0625 -0.12891,0.121093 -0.25781,0.238281 -0.38672,0.347656 -0.33203,0.289063 -0.68359,0.546875 -1.02344,0.746094 -0.22265,0.128906 -0.4414,0.234375 -0.64453,0.308593 -0.199218,0.06641 -0.374999,0.105469 -0.523436,0.105469 -0.140625,0 -0.242188,-0.03516 -0.289063,-0.08984 -0.04297,-0.05469 -0.02344,-0.117188 0.02344,-0.164063 0.05078,-0.04687 0.117187,-0.07422 0.15625,-0.121094 0.04297,-0.05078 0.05469,-0.117187 0.05469,-0.25 -0.484375,-1.359375 -0.78125,-3 -0.910156,-4.863281 -0.128906,-1.878906 -0.08203,-3.917969 0.08984,-6.042969 0.05078,-0.589843 0.105468,-1.183593 0.171875,-1.777343 0.410156,-3.671876 1.23047,-7.769532 2.80469,-11.800782 l -3.02344,1.539063 c -0.238281,-0.06641 -0.410157,-0.160157 -0.515625,-0.234375 -0.109375,-0.07422 -0.171875,-0.140625 -0.199219,-0.179688 -0.06641,-0.09375 -0.0078,-0.101562 0.07031,-0.06641 0.08203,0.04297 0.207031,0.140625 0.347656,0.277344 0.144531,0.144531 0.308594,0.324218 0.484375,0.539062 0.363281,0.445313 0.769531,1.019532 1.183593,1.671875 0.45313,0.707031 0.91407,1.5 1.36328,2.320313 0.44922,0.828125 0.88282,1.683594 1.28125,2.515625 0.55079,1.148437 1.10157,2.351562 1.64454,3.585937 1.35546,3.074219 2.4414,5.832032 3.01171,7.320313 z m 0,0"
     fill="#c01c28"
     id="path44" />
  <path
     d="m 26.199219,60.027344 c 0.02344,3.703125 -2.960938,6.71875 -6.664063,6.742187 -3.703125,0.02344 -6.722656,-2.960937 -6.742187,-6.664062 -0.02344,-3.703125 2.960937,-6.722657 6.664062,-6.742188 3.703125,-0.02344 6.71875,2.960938 6.742188,6.664063 z m 75.601561,0 c -0.0234,3.703125 2.96094,6.71875 6.66406,6.742187 3.70313,0.02344 6.72266,-2.960937 6.74219,-6.664062 0.0234,-3.703125 -2.96094,-6.722657 -6.66406,-6.742188 -3.70313,-0.02344 -6.72266,2.960938 -6.74219,6.664063 z m 0,0"
     fill="#e66100"
     id="path45"
     style="fill-rule:evenodd" />
  <path
     d="m 26.199219,58.910156 c 0.02344,3.703125 -2.960938,6.722656 -6.664063,6.746094 -3.703125,0.01953 -6.722656,-2.964844 -6.742187,-6.664062 -0.02344,-3.703126 2.960937,-6.722657 6.664062,-6.746094 3.703125,-0.01953 6.71875,2.960937 6.742188,6.664062 z m 75.601561,0 c -0.0234,3.703125 2.96094,6.722656 6.66406,6.746094 3.70313,0.01953 6.72266,-2.964844 6.74219,-6.664062 0.0234,-3.703126 -2.96094,-6.722657 -6.66406,-6.746094 -3.70313,-0.01953 -6.72266,2.960937 -6.74219,6.664062 z m 0,0"
     fill="url(#f)"
     id="path46"
     style="fill:url(#f);fill-rule:evenodd" />
  <path
     d="m 12.863281,59.300781 c 0,0 3.628907,0.855469 6.789063,0.835938 3.191406,-0.01953 6.546875,-0.914063 6.546875,-0.914063 0.683593,-0.09766 1.246093,0.339844 1.25,1.03125 0.0039,0.6875 -0.546875,1.457032 -1.238281,1.460938 0,0 -2.632813,0.890625 -6.519532,0.910156 -3.890625,0.02344 -6.8125,-0.832031 -6.8125,-0.832031 -0.683594,-0.08594 -1.25,-0.757813 -1.253906,-1.445313 -0.0039,-0.691406 0.550781,-1.042968 1.238281,-1.046875 z m 102.273439,0 c 0,0 -3.62891,0.855469 -6.78906,0.835938 -3.19141,-0.01953 -6.54688,-0.914063 -6.54688,-0.914063 -0.68359,-0.09766 -1.24609,0.339844 -1.25,1.03125 -0.004,0.6875 0.54688,1.457032 1.23438,1.460938 0,0 2.63672,0.890625 6.52343,0.910156 3.88672,0.02344 6.8125,-0.832031 6.8125,-0.832031 0.6836,-0.08594 1.25,-0.757813 1.25391,-1.445313 0.004,-0.691406 -0.55078,-1.042968 -1.23828,-1.046875 z m 0,0"
     fill="#e66100"
     id="path47"
     style="fill-rule:evenodd" />
  <path
     d="m 12.777344,58.449219 c 0,0 3.625,0.851562 6.785156,0.835937 3.191406,-0.01953 6.546875,-0.914062 6.546875,-0.914062 0.683594,-0.09766 1.246094,0.339844 1.25,1.027344 0.0039,0.691406 -0.546875,1.457031 -1.234375,1.460937 0,0 -2.636719,0.890625 -6.523438,0.914063 -3.886718,0.02344 -6.8125,-0.832032 -6.8125,-0.832032 -0.683593,-0.08594 -1.25,-0.757812 -1.253906,-1.445312 -0.0039,-0.691406 0.550782,-1.042969 1.242188,-1.046875 z m 102.445316,0 c 0,0 -3.625,0.851562 -6.78516,0.835937 -3.19141,-0.01953 -6.54687,-0.914062 -6.54687,-0.914062 -0.6836,-0.09766 -1.25,0.339844 -1.25391,1.027344 -0.004,0.691406 0.54687,1.457031 1.23828,1.460937 0,0 2.63672,0.890625 6.51953,0.914063 3.89063,0.02344 6.8125,-0.832032 6.8125,-0.832032 0.6875,-0.08594 1.25391,-0.757812 1.25781,-1.445312 0.004,-0.691406 -0.55078,-1.042969 -1.24218,-1.046875 z m 0,0"
     fill="url(#g)"
     id="path48"
     style="fill:url(#g);fill-rule:evenodd" />
  <path
     d="m 55.25,63.800781 c 3.035156,2.261719 4.894531,4.90625 4.152344,5.902344 -0.742188,0.996094 -3.808594,-0.02734 -6.84375,-2.289063 -3.035156,-2.265624 -4.894532,-4.90625 -4.152344,-5.902343 0.742188,-1 3.808594,0.02734 6.84375,2.289062 z m 17.5,0 c -3.035156,2.261719 -4.894531,4.90625 -4.152344,5.902344 0.742188,0.996094 3.808594,-0.02734 6.84375,-2.289063 3.035156,-2.265624 4.894532,-4.90625 4.152344,-5.902343 -0.746094,-1 -3.808594,0.02734 -6.84375,2.289062 z m 0,0"
     fill="#f66151"
     id="path49"
     style="fill-rule:evenodd" />
  <path
     d="m 64,47.367188 c -1.527344,0.199218 -2.75,4.515624 -2.75,9.804687 0,5.292969 1.222656,9.609375 2.75,9.804687 1.527344,-0.195312 2.746094,-4.511718 2.746094,-9.804687 0,-5.289063 -1.21875,-9.605469 -2.746094,-9.804687 z m 0,0"
     fill="#f66151"
     id="path50"
     style="fill-rule:evenodd" />
  <path
     d="m 64,74.941406 c -0.910156,0.06641 -1.632812,1.070313 -1.632812,2.296875 0,1.230469 0.722656,2.234375 1.632812,2.296875 0.910156,-0.0625 1.632812,-1.066406 1.632812,-2.296875 0,-1.226562 -0.722656,-2.230469 -1.632812,-2.296875 z m 0,0"
     fill="#f66151"
     id="path51"
     style="fill-rule:evenodd" />
  <path
     d="m 22.363281,54.785156 c 0,0.613282 -0.5,1.113282 -1.117187,1.113282 -0.617188,0 -1.117188,-0.5 -1.117188,-1.113282 0,-0.617187 0.5,-1.117187 1.117188,-1.117187 0.617187,0 1.117187,0.5 1.117187,1.117187 z m 83.273439,0 c 0,0.613282 0.5,1.113282 1.11719,1.113282 0.61718,0 1.11328,-0.5 1.11328,-1.113282 0,-0.617187 -0.4961,-1.117187 -1.11328,-1.117187 -0.61719,0 -1.11719,0.5 -1.11719,1.117187 z m 0,0"
     fill="#ffffff"
     id="path52"
     style="fill-rule:evenodd" />
  <path
     d="m 34.011719,99.175781 c 0,0 8.617187,1.968749 12.6875,-0.0078 5.804687,-2.8125 9.625,-0.429688 9.625,-0.429688 0,0 -4.648438,1.132813 -8.082031,3.437497 -6.09375,4.09375 -14.230469,-2.999997 -14.230469,-2.999997 z m 59.972656,0 c 0,0 -8.613281,1.968749 -12.6875,-0.0078 -5.800781,-2.8125 -9.625,-0.429688 -9.625,-0.429688 0,0 4.652344,1.132813 8.085937,3.437497 6.089844,4.09375 14.226563,-2.999997 14.226563,-2.999997 z m 0,0"
     fill="#ed333b"
     id="path53"
     style="fill-rule:evenodd" />
  <path
     d="m 64,108.46484 c -0.359375,0.24219 -0.75,0.4961 -1.085938,0.70313 -0.378906,0.23828 -0.761718,0.46094 -1.167968,0.66406 -0.648438,0.33203 -1.246094,0.5625 -1.847656,0.75 -0.222657,0.0703 -0.449219,0.13672 -0.6875,0.19922 -0.832032,0.22266 -1.621094,0.35156 -2.425782,0.39453 -0.09766,0.008 -0.195312,0.0117 -0.289062,0.0156 -0.8125,0.0234 -1.824219,0.0273 -2.1875,0.0312 0.253906,0.0703 1.398437,0.42578 2.128906,0.58593 0.09766,0.0234 0.191406,0.0469 0.292969,0.0664 0.792969,0.16797 1.722656,0.31641 2.722656,0.20313 0.285156,-0.0352 0.5625,-0.0898 0.832031,-0.16407 0.726563,-0.20703 1.441406,-0.55078 2.109375,-1.03515 0.414063,-0.30078 0.789063,-0.63672 1.121094,-0.98438 0.171875,-0.1875 0.335937,-0.38281 0.484375,-0.58203 0.148438,0.19922 0.3125,0.39453 0.484375,0.58203 0.332031,0.34766 0.707031,0.6836 1.121094,0.98438 0.667969,0.48437 1.378906,0.82812 2.105469,1.03515 0.269531,0.0742 0.550781,0.12891 0.835937,0.16407 1,0.11328 1.929687,-0.0352 2.722656,-0.20313 0.101563,-0.0195 0.195313,-0.043 0.289063,-0.0664 0.734375,-0.16015 1.878906,-0.51562 2.128906,-0.58593 -0.359375,-0.004 -1.371094,-0.008 -2.1875,-0.0312 -0.08984,-0.004 -0.1875,-0.008 -0.285156,-0.0156 -0.804688,-0.043 -1.59375,-0.17187 -2.429688,-0.39453 -0.234375,-0.0625 -0.460937,-0.12891 -0.683594,-0.19922 -0.601562,-0.1875 -1.203124,-0.41797 -1.851562,-0.75 -0.402344,-0.20312 -0.785156,-0.42578 -1.167969,-0.66406 C 64.75,108.96094 64.359375,108.70703 64,108.46484 Z m 0,0"
     fill="#ed333b"
     id="path54" />
  <path
     d="m 64,69.808594 c -0.695312,0.01172 -1.257812,0.578125 -1.257812,1.277344 0,0.699218 0.5625,1.265624 1.257812,1.277343 0.695312,-0.01172 1.253906,-0.578125 1.253906,-1.277343 0,-0.699219 -0.558594,-1.265626 -1.253906,-1.277344 z m 0,0"
     fill="#f66151"
     fill-rule="evenodd"
     id="path55" />
  <metadata
     id="metadata71">
    <rdf:RDF>
      <cc:Work
         rdf:about="">
        <dc:date>2026</dc:date>
        <dc:creator>
          <cc:Agent>
            <dc:title>Viktoria 'gingercat' Zubacheva | gingercat@alt-gnome.ru</dc:title>
          </cc:Agent>
        </dc:creator>
        <dc:rights>
          <cc:Agent>
            <dc:title>CC BY-NC-SA 4.0 http://creativecommons.org/licenses/by-nc-sa/4.0/</dc:title>
          </cc:Agent>
        </dc:rights>
        <cc:license
           rdf:resource="http://creativecommons.org/licenses/by-nc-sa/4.0/" />
      </cc:Work>
      <cc:License
         rdf:about="http://creativecommons.org/licenses/by-nc-sa/4.0/">
        <cc:permits
           rdf:resource="http://creativecommons.org/ns#Reproduction" />
        <cc:permits
           rdf:resource="http://creativecommons.org/ns#Distribution" />
        <cc:requires
           rdf:resource="http://creativecommons.org/ns#Notice" />
        <cc:requires
           rdf:resource="http://creativecommons.org/ns#Attribution" />
        <cc:prohibits
           rdf:resource="http://creativecommons.org/ns#CommercialUse" />
        <cc:permits
           rdf:resource="http://creativecommons.org/ns#DerivativeWorks" />
        <cc:requires
           rdf:resource="http://creativecommons.org/ns#ShareAlike" />
      </cc:License>
    </rdf:RDF>
  </metadata>
</svg>
